<svg width="34" height="33" viewBox="0 0 34 33" fill="none" xmlns="http://www.w3.org/2000/svg">
<path fill-rule="evenodd" clip-rule="evenodd" d="M9.17364 7.23193C4.72634 7.23193 1.12109 10.8372 1.12109 15.2845V24.9475C1.12109 29.3948 4.72634 33.0001 9.17364 33.0001H25.2787C29.726 33.0001 33.3313 29.3948 33.3313 24.9475V24.8921H26.0577C23.428 24.8921 21.3077 22.7328 21.3077 20.1158C21.3077 17.4989 23.428 15.3396 26.0577 15.3396H33.3313V15.2845C33.3313 10.8372 29.726 7.23193 25.2787 7.23193H9.17364ZM26.0577 16.8396H33.3313V23.3921H26.0577C24.2691 23.3921 22.8077 21.9172 22.8077 20.1158C22.8077 18.3145 24.2691 16.8396 26.0577 16.8396ZM7.56312 25.0026C7.14891 25.0026 6.81312 25.3384 6.81312 25.7526C6.81312 26.1668 7.14891 26.5026 7.56312 26.5026H17.2262C17.6404 26.5026 17.9762 26.1668 17.9762 25.7526C17.9762 25.3384 17.6404 25.0026 17.2262 25.0026H7.56312ZM26.084 19.3658C25.6698 19.3658 25.334 19.7016 25.334 20.1158C25.334 20.5301 25.6698 20.8658 26.084 20.8658H26.4061C26.8203 20.8658 27.1561 20.5301 27.1561 20.1158C27.1561 19.7016 26.8203 19.3658 26.4061 19.3658H26.084Z" fill="#FFC000"/>
<path d="M29.2856 5.60997C28.1243 2.40284 24.7323 0.332301 21.1583 1.06814L7.30674 3.91992C4.41364 4.51556 2.06973 6.42276 0.84375 8.94376C2.75617 6.435 5.77607 4.81595 9.17413 4.81595H25.2792C26.6983 4.81595 28.0515 5.09834 29.2856 5.60997Z" fill="#FFC000"/>
</svg>
