<svg width="30" height="30" viewBox="0 0 30 30" fill="none" xmlns="http://www.w3.org/2000/svg">
<g clip-path="url(#clip0_548_3280)">
<path d="M14.6508 0H15.4418C19.7355 0.144727 23.7814 2.08711 26.523 5.40117C28.6992 8.03203 29.8582 11.0859 30 14.5629V15.3721C29.7533 23.3924 23.4211 29.7193 15.4225 30H14.6273C10.5797 29.8729 6.70312 28.149 3.99668 25.1965C1.48652 22.4582 0.154297 19.1959 0 15.4096V14.5541C0.147266 11.1021 1.29473 8.06426 3.44238 5.44043C6.19043 2.08301 10.3248 0.121875 14.6508 0ZM19.9166 20.2113C20.6648 20.1311 21.3732 19.7719 21.8408 19.176C22.0158 18.9525 22.1197 18.7568 22.1525 18.5889C22.5963 16.3002 22.6178 14.0111 22.217 11.7217C22.1689 11.4451 22.1008 11.2264 22.0125 11.0654C21.702 10.4994 21.1031 10.101 20.5014 9.9082C20.2775 9.83633 19.9068 9.77598 19.3893 9.72715C16.3912 9.44551 13.3938 9.45371 10.3969 9.75176C10.007 9.79043 9.71035 9.84297 9.50684 9.90937C8.89277 10.1098 8.31035 10.4906 7.99512 11.0672C7.90684 11.2281 7.83848 11.4459 7.79004 11.7205C7.40371 13.9068 7.40371 16.0934 7.79004 18.2801C7.83691 18.5453 7.8998 18.7541 7.97871 18.9064C8.27051 19.4689 8.87871 19.8838 9.46523 20.0801C9.69961 20.1586 10.0836 20.2229 10.6172 20.2729C13.7168 20.5643 16.8166 20.5438 19.9166 20.2113Z" fill="#272727"/>
<path d="M13.2369 12.1431L17.8611 14.9837C17.864 14.9855 17.8664 14.988 17.8681 14.9909C17.8698 14.9939 17.8707 14.9973 17.8707 15.0007C17.8707 15.0041 17.8698 15.0074 17.8681 15.0104C17.8664 15.0134 17.864 15.0159 17.8611 15.0177L13.2369 17.8583C13.2339 17.86 13.2305 17.8609 13.227 17.861C13.2235 17.861 13.2201 17.8601 13.2171 17.8584C13.2141 17.8566 13.2116 17.8542 13.2098 17.8512C13.208 17.8482 13.2071 17.8448 13.207 17.8413V12.16C13.2071 12.1566 13.208 12.1532 13.2098 12.1502C13.2116 12.1472 13.2141 12.1447 13.2171 12.143C13.2201 12.1413 13.2235 12.1404 13.227 12.1404C13.2305 12.1404 13.2339 12.1413 13.2369 12.1431Z" fill="#272727"/>
</g>
<defs>
<clipPath id="clip0_548_3280">
<rect width="30" height="30" fill="white"/>
</clipPath>
</defs>
</svg>
